# xmcd
#
# Track frame offsets: 
#        150
#        12377
#        21542
#        34707
#        49245
#        59132
#        70842
#        82435
#        94945
#        108070
#        124177
#        139175
#        149712
#        162270
#        174370
#        184865
#        196920
#        211757
#        225665
#        239080
#
# Disc length: 3338 seconds
#
# Revision: 0
# Processed by: cddbd v1.5.1PL0 Copyright (c) Steve Scherf et al.
# Submitted via: ExactAudioCopy v0.95b3
#
DISCID=2f0d0814
DTITLE=Various Artist - History Of Country Music: Country Gospel Favorites
DYEAR=1998
DGENRE=Country
TTITLE0=The Statler Brothers - Oh Happy Day
TTITLE1=Tennessee Ernie Ford - How Great Thou Art
TTITLE2=Loretta Lynn - (There'll Be) Peace In The Valley
TTITLE3=Willie Nelson - Family Bible
TTITLE4=Eddy Arnold - Praise Him, Praise Him
TTITLE5=Dolly Parton - Wings Of A Dove
TTITLE6=Merle Haggard - On The Jericho Road
TTITLE7=Conway Twitty - Who Will Pray For Me
TTITLE8=The Blackwood Borthers Quartet - Precious Memories
TTITLE9=Dottie West - His Eye On The Sparrow
TTITLE10=The Browns - Whispering Hope
TTITLE11=Jim Reeves - In The Garden
TTITLE12=Porter Wagoner And The Blackwood Brothers Quartet - If Jesus 
TTITLE12=Came To Your House
TTITLE13=Chet Atkins - Amazing Grace
TTITLE14=Kitty Wells - Dust On The Bible
TTITLE15=Sons Of The Pioneers - The Place Where I Worship (Is The Wide
TTITLE15=Open Spaces)
TTITLE16=Cristy Lane - One Day At A Time
TTITLE17=Floyd Cramer - This World Is Not My Home - I'll Fly Away - Do
TTITLE17=wn In The Heart - Do Lord - Give Me World A Smile
TTITLE18=Stuard Hamblen - This Ole House
TTITLE19=Andy Griffth - Turn Your Radio On
EXTD=
EXTT0=
EXTT1=
EXTT2=
EXTT3=
EXTT4=
EXTT5=
EXTT6=
EXTT7=
EXTT8=
EXTT9=
EXTT10=
EXTT11=
EXTT12=
EXTT13=
EXTT14=
EXTT15=
EXTT16=
EXTT17=
EXTT18=
EXTT19=
PLAYORDER=
